<svg width="512" height="512" xmlns="http://www.w3.org/2000/svg">
 <title/>

 <g>
  <title>background</title>
  <rect fill="none" id="canvas_background" height="402" width="582" y="-1" x="-1"/>
 </g>
 <g>
  <title>Layer 1</title>
  <g id="svg_9">
   <path id="svg_6" fill="#b6c4cf" d="m409.047578,223.739745a105.1,105.1 0 0 0 -7.34,-23.33a64.4,64.4 0 0 0 -12.66,3.33a105.64,105.64 0 0 0 -19.9,-44.46a106,106 0 0 0 -170.24,84.32c0,2.72 0.11,5.41 0.31,8.08a50,50 0 0 0 -58.23,71.83a49.78,49.78 0 0 0 23.92,6.09l247,0a65,65 0 0 0 54.85,-99.85a65,65 0 0 0 -57.71,-6l0,-0.01z"/>
   <path id="svg_7" stroke-width="20" stroke-miterlimit="10" stroke-linecap="round" stroke="#02005c" fill="none" d="m476.777578,268.009745c1.86,-33.07 -22.91,-63.16 -55.72,-67.76a65.39,65.39 0 0 0 -32,3.5c-6.45,-34.08 -30,-62.91 -61.32,-77.47c-43.83,-21.68 -100.83,-4.68 -128.98,35.56"/>
  </g>
  <g id="svg_8">
   <path id="svg_1" fill="#b6c4cf" d="m327.015334,269.0182a105.1,105.1 0 0 0 -7.34,-23.33a64.4,64.4 0 0 0 -12.66,3.33a105.64,105.64 0 0 0 -19.9,-44.46a106,106 0 0 0 -170.24,84.32c0,2.72 0.11,5.41 0.31,8.08a50,50 0 0 0 -58.23,71.83a49.78,49.78 0 0 0 23.92,6.09l247,0a65,65 0 0 0 54.85,-99.85a65,65 0 0 0 -57.71,-6l0,-0.01z"/>
   <path id="svg_2" stroke-width="20" stroke-linejoin="round" stroke-linecap="round" stroke="#02005c" fill="none" d="m104.375334,229.6882c-0.07,0.19 -0.15,0.37 -0.22,0.56s-0.15,0.36 -0.22,0.55"/>
   <path id="svg_3" stroke-width="20" stroke-miterlimit="10" stroke-linecap="round" stroke="#02005c" fill="none" d="m394.745334,313.2882c1.86,-33.07 -22.91,-63.16 -55.72,-67.76a65.39,65.39 0 0 0 -32,3.5c-6.45,-34.08 -30,-62.91 -61.32,-77.47c-43.83,-21.68 -100.83,-4.68 -128.98,35.56"/>
   <path id="svg_4" stroke-width="20" stroke-miterlimit="10" stroke-linecap="round" stroke="#02005c" fill="none" d="m374.525334,357.1182a64.67,64.67 0 0 0 13.64,-18.62"/>
   <path id="svg_5" stroke-width="20" stroke-miterlimit="10" stroke-linecap="round" stroke="#02005c" fill="none" d="m97.705334,255.5782a107.71,107.71 0 0 0 -0.53,21.39a50.48,50.48 0 0 0 -59.3,26.13a48.32,48.32 0 0 0 0,43.78c3,5 6,11 11,15a83.42,83.42 0 0 0 12,8a120.9,120.9 0 0 0 18,5q129,1.5 258,0c5,0 11,-3 15.92,-4.16"/>
  </g>
 </g>
</svg>